<?xml version="1.0" standalone="no"?>
<!DOCTYPE svg PUBLIC "-//W3C//DTD SVG 20010904//EN"
 "http://www.w3.org/TR/2001/REC-SVG-20010904/DTD/svg10.dtd">
<svg version="1.0" xmlns="http://www.w3.org/2000/svg"
 width="1936.000000pt" height="1936.000000pt" viewBox="0 0 1936.000000 1936.000000"
 preserveAspectRatio="xMidYMid meet">

<g transform="translate(0.000000,1936.000000) scale(0.100000,-0.100000)"
fill="#000000" stroke="none">
<path d="M9480 18427 c-27 -13 -71 -55 -110 -106 -14 -18 -31 -39 -37 -46 -7
-8 -13 -18 -13 -24 0 -6 -4 -11 -10 -11 -5 0 -12 -11 -16 -25 -3 -14 -10 -25
-15 -25 -5 0 -9 -6 -9 -14 0 -8 -4 -16 -8 -18 -4 -1 -18 -20 -31 -40 -12 -21
-27 -38 -32 -38 -5 0 -9 -6 -9 -12 0 -7 -22 -35 -50 -63 -27 -27 -49 -56 -50
-62 0 -7 -7 -13 -15 -13 -8 0 -15 -5 -15 -10 0 -10 -106 -120 -116 -120 -3 0
-15 -9 -27 -21 -12 -11 -41 -30 -64 -41 -24 -12 -43 -25 -43 -30 0 -4 -7 -8
-15 -8 -8 0 -15 -4 -15 -10 0 -5 -11 -12 -25 -16 -14 -3 -25 -10 -25 -15 0 -5
-7 -9 -15 -9 -8 0 -15 -4 -15 -9 0 -5 -10 -13 -22 -17 -12 -3 -31 -15 -42 -26
-12 -10 -41 -29 -66 -41 -25 -12 -46 -25 -48 -29 -2 -5 -10 -8 -18 -8 -8 0
-14 -4 -14 -9 0 -5 -10 -13 -22 -17 -22 -7 -82 -57 -127 -108 -14 -16 -32 -35
-38 -42 -7 -7 -13 -17 -13 -23 0 -6 -4 -11 -10 -11 -5 0 -12 -11 -16 -25 -3
-14 -10 -25 -14 -25 -4 0 -10 -8 -13 -17 -3 -10 -15 -43 -26 -73 -22 -57 -28
-140 -11 -140 6 0 10 -6 10 -13 0 -8 16 -22 35 -33 34 -18 36 -18 73 1 20 11
42 25 47 31 57 59 155 88 155 44 0 -40 30 -60 90 -60 34 0 64 6 76 15 10 8 29
15 41 15 12 0 23 6 26 13 3 9 30 11 101 9 76 -2 104 1 122 13 22 14 25 14 30
0 4 -8 4 -28 0 -43 -3 -15 -11 -55 -18 -89 -6 -35 -15 -63 -20 -63 -4 0 -8
-19 -8 -42 -1 -24 -7 -54 -15 -68 -8 -14 -14 -44 -15 -68 0 -23 -4 -50 -9 -60
-10 -17 -25 -91 -42 -202 -4 -30 -15 -91 -24 -135 -40 -195 -53 -348 -54 -610
-1 -99 -6 -271 -13 -382 -9 -157 -9 -255 1 -440 24 -473 38 -657 66 -853 9
-63 20 -151 25 -195 5 -44 16 -125 25 -180 9 -55 19 -129 24 -165 5 -36 14
-78 20 -93 6 -16 11 -50 11 -76 0 -26 3 -51 8 -55 7 -8 28 -118 38 -201 3 -27
8 -57 12 -65 9 -23 32 -137 41 -206 4 -34 12 -67 17 -75 4 -8 12 -34 16 -59
15 -89 20 -110 34 -121 8 -6 14 -18 14 -27 0 -8 11 -30 25 -48 14 -18 25 -35
25 -39 0 -3 12 -17 28 -31 26 -25 27 -28 25 -131 -1 -57 -6 -110 -11 -116 -6
-7 -13 -42 -17 -80 -4 -37 -11 -70 -16 -73 -5 -3 -9 -27 -9 -54 0 -27 -4 -51
-9 -54 -5 -3 -12 -23 -16 -43 -4 -21 -11 -43 -17 -50 -5 -7 -14 -61 -19 -120
-12 -144 -19 -192 -30 -199 -5 -3 -9 -17 -9 -32 0 -15 -7 -36 -15 -46 -8 -11
-15 -29 -15 -41 0 -12 -3 -25 -7 -29 -29 -29 -80 -286 -92 -467 -5 -64 -12
-122 -15 -128 -4 -6 -11 -55 -16 -109 -5 -53 -16 -135 -25 -182 -8 -47 -18
-107 -21 -135 -4 -27 -10 -54 -14 -60 -5 -5 -11 -31 -15 -57 -4 -27 -11 -48
-16 -48 -5 0 -9 -10 -9 -22 0 -26 -17 -82 -36 -121 -8 -16 -14 -36 -14 -46 0
-9 -7 -26 -15 -37 -8 -10 -15 -33 -15 -51 0 -17 -4 -34 -9 -38 -6 -3 -13 -26
-17 -50 -3 -25 -10 -48 -15 -51 -5 -3 -9 -16 -9 -29 0 -13 -3 -25 -7 -27 -11
-4 -43 -67 -43 -83 0 -7 -7 -15 -15 -19 -8 -3 -15 -12 -15 -19 0 -8 -11 -26
-24 -40 -13 -14 -31 -35 -38 -46 -27 -38 -103 -116 -142 -146 -22 -17 -54 -42
-70 -57 -17 -16 -36 -28 -43 -28 -7 0 -13 -4 -13 -10 0 -5 -7 -10 -15 -10 -8
0 -15 -4 -15 -10 0 -5 -6 -10 -14 -10 -8 0 -21 -6 -28 -14 -8 -7 -24 -17 -36
-20 -12 -4 -22 -12 -22 -17 0 -5 -9 -9 -19 -9 -11 0 -23 -4 -26 -10 -3 -5 -16
-10 -29 -10 -12 0 -31 -7 -42 -15 -28 -21 -280 -21 -308 0 -11 8 -28 15 -38
15 -16 0 -30 6 -78 31 -8 5 -34 18 -57 30 -24 13 -43 26 -43 31 0 4 -7 8 -15
8 -8 0 -15 5 -15 10 0 6 -4 10 -10 10 -19 0 -170 159 -170 179 0 5 -4 11 -8
13 -12 5 -66 98 -88 150 -10 27 -22 48 -26 48 -5 0 -8 11 -8 24 0 13 -7 29
-15 36 -8 7 -15 23 -15 36 0 12 -4 26 -10 29 -5 3 -10 16 -10 29 0 12 -7 31
-15 42 -8 10 -15 31 -15 47 0 15 -4 35 -10 45 -12 22 -31 105 -37 162 -2 25
-8 54 -13 65 -29 66 -51 521 -31 670 6 44 15 148 21 230 19 254 45 469 61 497
5 10 9 35 9 57 0 21 7 58 15 81 8 23 15 57 15 76 0 18 5 36 10 39 6 3 10 23
10 44 0 20 7 46 15 57 8 10 15 34 15 52 0 17 5 32 10 32 6 0 10 10 10 23 0 12
7 35 15 51 8 15 15 35 15 43 0 18 28 112 41 135 5 10 9 30 9 46 0 15 7 37 15
48 8 10 15 31 15 45 0 15 7 40 15 55 8 16 15 37 15 46 0 9 5 20 10 23 6 3 10
17 10 31 0 13 4 24 8 24 5 0 18 22 30 49 12 27 26 52 32 56 5 3 10 15 10 26 0
10 4 19 9 19 5 0 11 8 15 18 8 24 26 52 64 96 6 8 12 19 12 23 0 5 12 24 28
42 75 90 126 131 162 131 11 0 20 5 20 10 0 13 107 13 115 0 3 -5 15 -10 25
-10 19 0 52 -35 98 -106 7 -10 15 -27 18 -36 4 -10 10 -18 15 -18 5 0 9 -7 9
-15 0 -9 11 -33 25 -55 14 -22 25 -45 25 -52 0 -7 7 -22 15 -32 8 -11 15 -30
15 -43 0 -13 5 -23 10 -23 6 0 10 -12 10 -27 0 -16 7 -37 15 -47 8 -11 15 -30
15 -43 0 -13 5 -23 10 -23 6 0 10 -8 10 -17 0 -10 7 -31 15 -47 8 -15 15 -35
15 -43 0 -18 28 -112 41 -135 5 -10 9 -31 9 -47 0 -16 7 -45 15 -64 19 -46 19
-101 0 -121 -8 -8 -15 -19 -15 -25 0 -6 -4 -11 -10 -11 -5 0 -10 -11 -10 -24
0 -27 26 -41 56 -29 86 32 93 200 19 468 -9 33 -19 74 -22 90 -2 17 -11 44
-19 62 -8 17 -14 41 -14 52 0 12 -4 29 -9 39 -13 23 -41 117 -41 135 0 8 -7
28 -15 43 -8 16 -15 37 -15 47 0 9 -4 17 -10 17 -5 0 -10 11 -10 25 0 14 -4
25 -9 25 -5 0 -13 10 -16 23 -4 12 -18 36 -31 54 -13 17 -24 36 -24 42 0 6 -4
11 -9 11 -6 0 -22 11 -37 25 -15 14 -33 25 -40 25 -7 0 -14 4 -16 10 -1 5 -30
19 -63 31 -51 18 -76 21 -174 17 -76 -3 -116 -8 -119 -16 -2 -7 -12 -12 -22
-12 -20 0 -83 -30 -88 -42 -2 -5 -10 -8 -17 -8 -8 0 -25 -11 -39 -25 -14 -14
-28 -25 -32 -25 -13 0 -194 -191 -194 -206 0 -3 -6 -12 -12 -19 -30 -33 -38
-45 -38 -55 0 -5 -4 -10 -10 -10 -5 0 -12 -11 -16 -25 -3 -14 -10 -25 -15 -25
-5 0 -9 -6 -9 -14 0 -8 -6 -21 -13 -28 -12 -13 -52 -91 -103 -203 -14 -33 -30
-62 -34 -65 -7 -5 -11 -20 -29 -102 -5 -21 -13 -43 -19 -50 -5 -7 -12 -33 -15
-58 -3 -25 -13 -83 -22 -130 -33 -177 -64 -450 -74 -635 -3 -77 -10 -146 -15
-153 -40 -65 -38 -929 3 -1087 6 -22 11 -70 11 -106 0 -36 3 -69 8 -73 4 -4
13 -49 20 -99 21 -153 30 -209 47 -287 9 -41 20 -96 24 -123 4 -26 13 -53 19
-59 7 -7 12 -27 12 -44 0 -18 4 -36 10 -39 6 -3 10 -15 10 -27 0 -11 6 -32 14
-46 8 -15 27 -54 42 -87 34 -72 85 -159 96 -163 4 -2 8 -10 8 -18 0 -8 5 -14
10 -14 6 0 10 -5 10 -10 0 -17 160 -170 177 -170 3 0 14 -6 22 -13 22 -19 117
-58 166 -69 86 -20 196 -41 333 -64 58 -9 262 36 262 58 0 4 11 8 25 8 14 0
25 4 25 9 0 5 11 12 25 15 14 4 25 11 25 16 0 6 9 10 20 10 10 0 23 6 27 13 4
7 25 21 46 32 20 11 37 23 37 27 0 5 5 8 11 8 35 0 252 194 347 310 20 25 51
60 69 79 18 18 35 42 38 52 4 11 11 19 16 19 5 0 9 4 9 9 0 5 16 26 35 47 19
20 35 41 35 45 0 5 14 22 30 39 17 17 30 33 30 36 0 2 10 16 23 30 51 57 57
64 57 72 0 4 9 14 21 22 11 8 30 32 41 53 12 20 25 37 30 37 14 0 8 -64 -7
-84 -8 -11 -15 -29 -15 -40 0 -28 -24 -94 -38 -108 -7 -7 -12 -17 -12 -24 0
-17 -33 -74 -42 -74 -5 0 -8 -7 -8 -15 0 -8 -3 -15 -8 -15 -7 0 -25 -30 -38
-62 -3 -10 -13 -18 -20 -18 -8 0 -14 -4 -14 -10 0 -10 -115 -178 -134 -195 -6
-5 -27 -30 -46 -55 -19 -25 -38 -46 -42 -48 -5 -2 -8 -8 -8 -13 0 -5 -12 -23
-27 -39 -57 -60 -73 -80 -73 -90 0 -5 -7 -10 -15 -10 -8 0 -15 -5 -15 -11 0
-9 -138 -149 -222 -225 -40 -36 -165 -124 -177 -124 -6 0 -11 -4 -11 -10 0 -5
-11 -12 -25 -16 -14 -3 -25 -9 -25 -13 0 -3 -17 -15 -37 -26 -21 -11 -55 -30
-75 -42 -21 -13 -44 -23 -52 -23 -8 0 -16 -7 -20 -15 -3 -8 -12 -15 -21 -15
-8 0 -33 -11 -55 -25 -22 -14 -49 -25 -60 -25 -11 0 -20 -4 -20 -10 0 -5 -11
-12 -25 -16 -14 -3 -25 -10 -25 -15 0 -5 -11 -9 -25 -9 -14 0 -25 -4 -25 -9 0
-4 -21 -16 -47 -25 -27 -9 -61 -23 -76 -31 -16 -8 -37 -15 -47 -15 -10 0 -31
-7 -46 -15 -16 -8 -36 -15 -44 -15 -9 0 -20 -4 -25 -9 -6 -5 -28 -11 -50 -14
-22 -3 -65 -12 -95 -22 -30 -9 -73 -20 -95 -24 -23 -4 -47 -11 -55 -16 -8 -5
-34 -12 -57 -17 -84 -16 -128 -26 -158 -36 -16 -6 -57 -18 -90 -27 -33 -9 -68
-20 -77 -26 -10 -5 -25 -9 -33 -9 -15 0 -97 -23 -140 -39 -42 -16 -91 -33
-110 -38 -25 -6 -37 -11 -157 -67 -53 -25 -99 -50 -103 -56 -3 -5 -15 -10 -26
-10 -10 0 -19 -3 -19 -7 0 -5 -23 -24 -50 -43 -27 -19 -50 -38 -50 -42 0 -5
-5 -8 -10 -8 -14 0 -170 -155 -170 -169 0 -6 -6 -11 -12 -11 -11 0 -55 -55
-67 -84 -2 -5 -13 -19 -25 -30 -12 -12 -30 -38 -40 -58 -11 -21 -23 -38 -28
-38 -4 0 -8 -6 -8 -14 0 -8 -6 -21 -13 -28 -12 -12 -88 -163 -106 -213 -48
-127 -54 -167 -54 -370 0 -207 12 -285 59 -375 18 -35 50 -38 58 -6 7 30 -3
104 -15 112 -5 3 -9 20 -9 39 0 18 -5 35 -11 37 -16 5 -24 277 -11 343 17 85
42 169 58 192 7 12 14 29 14 37 0 7 7 16 15 20 8 3 15 11 15 18 0 7 11 25 25
40 14 15 25 29 25 32 0 6 161 166 166 166 2 0 18 16 37 35 19 19 38 35 43 35
5 0 23 14 41 30 18 17 35 30 38 30 4 0 13 6 20 13 30 26 44 37 49 37 3 0 34
17 68 38 35 20 77 44 93 52 17 8 36 21 43 28 7 6 18 12 23 12 5 0 27 11 49 25
22 14 49 25 60 25 11 0 20 4 20 8 0 5 19 16 43 25 23 10 55 24 70 32 16 8 37
15 47 15 10 0 22 5 25 10 3 6 19 10 34 10 15 0 32 5 38 11 6 6 29 15 50 20 21
4 70 16 108 25 39 9 99 19 135 24 85 10 183 31 195 41 5 5 22 9 38 9 15 0 38
5 50 12 12 7 45 15 72 19 28 4 82 15 120 23 39 9 88 19 110 22 22 4 45 10 50
14 6 4 29 11 52 15 24 4 45 11 49 16 3 5 20 9 38 9 17 0 37 5 43 11 10 10 38
18 125 36 15 3 33 11 39 19 6 8 20 14 30 14 10 0 39 11 65 25 26 14 53 25 61
25 7 0 30 10 51 23 20 12 55 31 77 42 22 11 42 22 45 25 7 7 42 29 60 37 15 7
28 17 55 41 7 6 18 12 24 12 6 0 11 4 11 9 0 5 8 12 19 16 10 3 35 21 54 40
20 19 39 35 43 35 9 0 260 255 339 345 94 106 96 108 107 97 7 -7 5 -21 -6
-43 -9 -18 -16 -38 -16 -45 0 -12 -21 -66 -41 -106 -5 -10 -9 -24 -9 -32 0 -7
-7 -19 -15 -26 -8 -7 -15 -23 -15 -36 0 -13 -4 -24 -10 -24 -5 0 -10 -5 -10
-11 0 -20 -71 -173 -107 -231 -13 -21 -23 -44 -23 -52 0 -8 -7 -16 -15 -20 -8
-3 -15 -14 -15 -25 0 -11 -4 -21 -8 -23 -10 -4 -92 -128 -92 -139 0 -5 -7 -9
-15 -9 -8 0 -15 -7 -15 -15 0 -8 -4 -15 -10 -15 -5 0 -10 -6 -10 -13 0 -20
-178 -197 -197 -197 -3 0 -16 -11 -29 -25 -13 -14 -30 -25 -39 -25 -8 0 -15
-4 -15 -10 0 -5 -7 -10 -15 -10 -8 0 -15 -4 -15 -10 0 -5 -16 -16 -35 -25 -19
-9 -39 -23 -46 -31 -6 -8 -18 -14 -26 -14 -8 0 -27 -13 -43 -28 -16 -16 -42
-40 -58 -54 -16 -13 -42 -43 -57 -66 -15 -23 -32 -42 -36 -42 -5 0 -9 -7 -9
-16 0 -8 -7 -22 -15 -30 -8 -9 -15 -24 -15 -35 0 -10 -4 -19 -10 -19 -5 0 -10
-10 -10 -23 0 -13 -7 -32 -15 -43 -8 -10 -15 -30 -15 -45 0 -14 -4 -29 -9 -35
-11 -10 -30 -130 -40 -244 -4 -51 -13 -87 -29 -113 -25 -44 -28 -72 -8 -80 41
-16 116 38 116 84 0 15 5 31 10 34 6 3 10 39 10 78 0 40 7 99 15 130 8 32 15
73 15 92 0 19 5 37 10 40 6 3 10 14 10 23 0 9 7 30 15 46 8 15 15 33 15 39 0
10 72 110 95 132 5 6 30 26 55 45 25 19 47 38 48 42 2 5 8 8 12 8 5 0 23 13
40 30 17 16 34 30 38 30 5 0 17 8 28 18 42 38 102 82 113 82 6 0 11 3 11 8 0
4 23 23 50 42 27 19 50 38 50 43 0 4 6 7 13 7 8 0 33 18 57 40 24 22 47 40 52
40 4 0 8 4 8 10 0 10 26 44 63 82 9 10 17 23 17 28 0 6 4 10 10 10 5 0 12 11
16 25 3 14 10 25 15 25 5 0 9 7 9 16 0 8 11 30 25 48 14 18 25 40 25 49 0 10
4 17 10 17 5 0 12 11 16 25 3 14 10 25 14 25 4 0 10 9 13 20 3 13 13 20 29 19
12 0 17 -3 11 -6 -7 -2 -13 -17 -13 -32 0 -15 -7 -36 -15 -47 -8 -10 -15 -31
-15 -46 0 -15 -4 -29 -9 -33 -5 -3 -12 -20 -16 -38 -8 -41 -25 -97 -35 -117
-4 -9 -11 -30 -14 -48 -4 -17 -12 -34 -17 -37 -5 -4 -9 -19 -9 -35 0 -16 -4
-32 -10 -35 -5 -3 -10 -16 -10 -28 0 -12 -7 -35 -15 -51 -8 -15 -15 -34 -15
-41 0 -7 -7 -15 -15 -19 -8 -3 -15 -12 -15 -21 0 -9 -11 -28 -25 -43 -14 -15
-25 -30 -25 -35 0 -4 -11 -18 -25 -31 -14 -13 -25 -26 -25 -29 0 -6 -31 -43
-77 -93 -18 -19 -33 -37 -33 -40 0 -3 -16 -21 -35 -40 -19 -18 -35 -36 -35
-38 0 -4 -32 -45 -62 -77 -10 -10 -18 -23 -18 -29 0 -5 -4 -10 -10 -10 -5 0
-10 -5 -10 -10 0 -6 -13 -29 -30 -52 -16 -22 -30 -45 -30 -50 0 -5 -11 -21
-25 -36 -14 -15 -25 -32 -25 -39 0 -7 -4 -13 -9 -13 -5 0 -11 -8 -15 -17 -8
-25 -27 -54 -52 -79 -12 -11 -25 -31 -29 -42 -3 -12 -11 -22 -16 -22 -5 0 -9
-7 -9 -15 0 -8 -4 -15 -9 -15 -5 0 -11 -8 -15 -17 -6 -21 -25 -51 -43 -71 -7
-7 -13 -20 -13 -28 0 -8 -4 -14 -10 -14 -5 0 -10 -9 -10 -19 0 -11 -3 -21 -7
-23 -5 -1 -17 -19 -27 -38 -11 -19 -30 -54 -43 -78 -12 -24 -23 -49 -23 -57 0
-7 -4 -15 -8 -17 -12 -4 -102 -197 -102 -217 0 -6 -4 -11 -10 -11 -5 0 -10
-10 -10 -23 0 -13 -7 -32 -15 -43 -8 -10 -15 -29 -15 -41 0 -13 -4 -23 -9 -23
-5 0 -13 -14 -16 -32 -4 -18 -11 -39 -15 -48 -12 -23 -51 -141 -60 -179 -5
-18 -13 -38 -19 -44 -6 -6 -11 -26 -11 -43 0 -18 -4 -36 -10 -39 -5 -3 -10
-17 -10 -29 0 -13 -7 -37 -15 -52 -8 -16 -15 -36 -15 -44 -1 -19 -35 -118 -44
-127 -3 -3 -6 -19 -6 -35 0 -15 -4 -36 -9 -46 -16 -33 -41 -120 -41 -145 0
-13 -7 -41 -15 -60 -10 -25 -15 -71 -15 -145 0 -94 -3 -111 -19 -126 -18 -17
-20 -15 -42 31 -13 26 -27 50 -31 51 -5 2 -8 9 -8 17 0 12 -16 52 -62 155 -11
25 -26 57 -32 73 -9 19 -10 41 -4 75 5 26 12 63 15 82 3 19 12 40 19 48 8 7
14 20 14 28 0 16 27 50 88 110 23 23 42 47 42 53 0 6 5 11 10 11 6 0 10 9 10
21 0 11 7 27 15 35 8 9 15 28 15 44 0 16 5 32 10 35 14 9 13 175 -2 228 -9 37
-8 49 7 85 11 23 22 42 27 42 4 0 8 5 8 10 0 6 11 28 25 50 14 22 25 50 25 63
0 13 5 28 11 34 20 20 23 134 5 177 -9 21 -16 48 -16 59 0 11 -11 35 -25 53
-14 18 -25 39 -25 48 0 8 -4 18 -10 21 -13 8 -13 72 0 80 5 3 10 13 10 21 0 8
11 25 24 37 13 12 26 32 30 45 4 12 12 22 17 22 5 0 9 15 9 34 0 19 5 38 10
41 13 8 13 116 -1 189 -8 44 -18 65 -41 86 -27 25 -30 33 -27 81 7 139 3 237
-10 263 -13 23 -20 26 -67 26 -29 0 -56 -4 -59 -10 -3 -5 -14 -10 -24 -10 -22
0 -151 -125 -151 -146 0 -8 -4 -14 -10 -14 -5 0 -10 -4 -10 -10 0 -10 -26 -44
-62 -82 -10 -10 -18 -22 -18 -28 0 -5 -4 -10 -10 -10 -5 0 -10 -5 -10 -11 0
-7 -24 -42 -53 -78 -30 -36 -60 -76 -68 -88 -7 -13 -19 -23 -26 -23 -7 0 -13
-7 -13 -15 0 -8 -4 -15 -10 -15 -5 0 -10 -4 -10 -9 0 -10 -125 -136 -195 -196
-91 -78 -195 -181 -195 -193 0 -6 -4 -12 -9 -12 -5 0 -12 -8 -15 -18 -7 -20
-27 -54 -43 -73 -16 -21 -24 -72 -33 -204 -4 -66 -13 -153 -20 -193 -11 -60
-11 -89 -1 -170 8 -53 16 -122 18 -152 3 -30 9 -59 14 -64 5 -6 9 -21 9 -35 0
-15 7 -35 15 -45 8 -11 15 -28 15 -37 0 -10 3 -19 8 -21 11 -5 72 -103 72
-116 0 -7 5 -12 10 -12 6 0 10 -11 10 -25 0 -14 4 -25 9 -25 5 0 15 -15 22
-32 6 -18 18 -49 26 -68 7 -19 21 -55 29 -80 9 -25 22 -58 29 -75 7 -16 18
-46 25 -65 15 -42 36 -94 55 -135 29 -66 65 -172 65 -193 0 -12 4 -22 9 -22 5
0 12 -13 16 -30 4 -16 11 -32 16 -35 5 -4 9 -14 9 -24 0 -10 7 -24 15 -31 8
-7 15 -23 15 -36 0 -13 5 -24 10 -24 6 0 10 -9 10 -20 0 -11 7 -23 15 -26 8
-4 15 -17 15 -30 0 -13 5 -24 10 -24 6 0 10 -6 10 -14 0 -8 6 -21 13 -28 11
-13 33 -50 64 -111 8 -15 19 -27 24 -27 5 0 9 -7 9 -15 0 -19 21 -58 38 -68 6
-4 12 -13 12 -20 0 -7 10 -23 23 -37 12 -14 31 -42 42 -62 11 -21 22 -38 26
-38 4 0 9 -8 13 -18 3 -9 10 -24 15 -32 21 -32 61 -130 61 -147 0 -11 4 -23 9
-28 9 -10 23 -110 40 -285 4 -47 13 -98 20 -113 6 -16 11 -44 11 -63 0 -45 27
-163 66 -284 8 -25 14 -53 14 -62 0 -10 5 -18 10 -18 6 0 10 -13 10 -28 0 -26
14 -64 41 -114 5 -10 9 -23 9 -30 0 -6 9 -31 20 -55 11 -24 29 -64 41 -91 38
-86 54 -117 62 -120 4 -2 7 -10 7 -17 0 -12 29 -74 40 -85 5 -5 16 -25 69
-125 14 -27 28 -52 31 -55 7 -7 29 -43 37 -60 3 -8 12 -19 20 -23 7 -4 13 -14
13 -21 0 -7 16 -30 35 -52 19 -21 38 -47 41 -56 3 -10 10 -18 15 -18 5 0 9 -5
9 -10 0 -23 411 -450 490 -510 19 -14 39 -29 45 -35 14 -13 46 -33 65 -42 8
-4 17 -9 20 -12 5 -6 45 -25 112 -55 20 -9 43 -16 52 -16 9 0 16 -4 16 -10 0
-5 13 -10 29 -10 16 0 48 -7 71 -15 23 -8 57 -15 76 -15 18 0 36 -4 39 -10 3
-5 19 -10 36 -10 16 0 29 -4 29 -9 0 -5 12 -12 28 -16 15 -3 50 -17 79 -31 28
-13 58 -24 66 -24 8 0 28 -7 43 -15 16 -8 37 -15 47 -15 9 0 17 -4 17 -10 0
-5 16 -10 35 -10 20 0 46 -6 58 -14 36 -22 156 -30 457 -30 288 0 496 13 560
33 19 6 56 11 82 11 26 0 49 4 52 9 3 4 31 11 63 15 31 4 61 10 67 15 6 5 29
11 51 14 59 8 139 28 149 38 6 5 24 9 40 9 17 0 40 7 50 15 11 8 32 15 48 15
15 0 28 5 28 10 0 6 11 10 24 10 13 0 37 6 53 14 46 24 100 46 112 46 6 0 11
5 11 10 0 6 5 10 12 10 18 0 88 33 88 42 0 4 8 8 19 8 10 0 24 7 31 15 7 8 21
15 30 15 10 0 20 4 22 8 2 4 30 23 63 41 33 19 62 36 65 40 8 10 44 31 63 37
9 4 17 10 17 14 0 4 11 11 25 14 14 4 25 11 25 16 0 6 7 10 15 10 8 0 15 4 15
10 0 5 11 12 25 16 14 3 25 10 25 15 0 5 7 9 15 9 8 0 15 4 15 10 0 5 11 12
25 16 14 3 25 10 25 15 0 5 4 9 10 9 13 0 120 104 120 118 0 6 4 12 8 14 4 2
18 20 31 41 12 20 29 37 37 37 8 0 22 4 32 9 9 5 44 14 77 19 84 14 127 26
178 51 24 11 48 21 54 21 6 0 16 7 23 15 7 8 21 15 31 15 11 0 19 4 19 9 0 5
11 12 25 15 14 4 25 11 25 16 0 6 4 10 10 10 29 0 250 188 250 213 0 4 11 20
25 35 14 15 25 31 25 37 0 6 11 22 25 37 14 15 25 32 25 38 0 6 11 27 24 48
12 20 26 47 30 60 4 12 12 22 17 22 5 0 9 11 9 25 0 14 5 25 10 25 6 0 10 15
10 33 0 17 5 48 10 67 6 19 15 64 19 100 11 82 30 179 41 205 5 11 11 36 14
55 8 56 30 130 38 130 5 0 8 13 8 29 0 16 7 36 15 45 8 8 15 24 15 35 0 12 3
21 8 21 9 0 42 91 42 117 0 10 5 24 12 31 17 17 18 234 1 239 -7 3 -13 11 -13
18 0 8 -17 26 -37 40 -31 21 -49 25 -105 25 -46 0 -71 -5 -82 -15 -8 -8 -17
-15 -21 -15 -3 0 -28 -22 -55 -49 -27 -27 -59 -52 -70 -56 -11 -3 -20 -10 -20
-14 0 -5 -26 -21 -57 -36 -112 -54 -123 -60 -123 -67 0 -5 -4 -8 -10 -8 -5 0
-27 -17 -48 -38 -46 -44 -92 -137 -92 -186 0 -19 -7 -41 -15 -50 -8 -8 -15
-19 -15 -23 0 -11 -87 -43 -116 -43 -59 0 -176 -87 -208 -154 -9 -20 -21 -38
-26 -41 -6 -3 -10 -17 -10 -31 0 -14 -6 -32 -12 -39 -43 -47 -50 -53 -103 -80
-22 -11 -45 -24 -52 -30 -7 -5 -19 -16 -27 -22 -8 -7 -17 -13 -20 -13 -16 0
-82 -80 -92 -112 -4 -10 -10 -18 -14 -18 -5 0 -12 -15 -15 -32 -4 -18 -11 -37
-15 -43 -5 -5 -10 -44 -13 -85 -5 -82 -17 -137 -42 -187 -19 -38 -90 -113
-108 -113 -7 0 -23 -12 -36 -25 -13 -14 -27 -25 -32 -25 -5 0 -9 -7 -9 -15 0
-8 -5 -15 -11 -15 -7 0 -26 -15 -43 -33 -17 -18 -48 -43 -68 -56 -21 -12 -38
-26 -38 -30 0 -4 -15 -15 -32 -26 -18 -10 -35 -21 -38 -24 -6 -7 -33 -22 -91
-53 -21 -11 -42 -24 -45 -29 -3 -5 -14 -9 -25 -9 -10 0 -19 -4 -19 -9 0 -5
-13 -12 -30 -16 -16 -4 -32 -11 -35 -16 -4 -5 -15 -9 -26 -9 -10 0 -19 -4 -19
-9 0 -5 -13 -12 -30 -16 -16 -4 -32 -11 -35 -16 -4 -5 -17 -9 -29 -9 -13 0
-29 -7 -36 -15 -7 -8 -25 -15 -41 -15 -15 0 -31 -4 -34 -10 -3 -5 -18 -10 -33
-10 -15 -1 -38 -7 -52 -15 -14 -8 -41 -14 -61 -15 -20 0 -39 -3 -43 -7 -9 -9
-104 -30 -196 -44 -106 -15 -198 -34 -206 -42 -4 -4 -28 -7 -53 -7 -25 -1 -73
-7 -106 -15 -71 -17 -191 -19 -266 -4 -30 6 -97 14 -149 19 -119 11 -220 28
-242 40 -10 6 -38 10 -62 10 -25 0 -48 5 -51 10 -3 6 -14 10 -23 10 -9 0 -30
7 -46 15 -15 8 -38 15 -51 15 -12 0 -28 7 -35 15 -7 8 -19 15 -26 15 -8 0 -22
4 -32 9 -9 4 -35 16 -57 27 -22 10 -57 29 -77 41 -21 13 -44 23 -53 23 -8 0
-15 5 -15 10 0 6 -6 10 -14 10 -8 0 -21 6 -28 14 -8 7 -24 17 -36 20 -12 4
-22 12 -22 17 0 5 -7 9 -15 9 -8 0 -15 4 -15 10 0 5 -11 12 -25 16 -14 3 -25
10 -25 15 0 5 -4 9 -10 9 -10 0 -44 26 -82 62 -10 10 -20 18 -23 18 -7 0 -113
107 -157 161 -54 63 -53 62 -61 82 -3 9 -11 17 -17 17 -5 0 -10 5 -10 11 0 6
-6 17 -12 24 -24 26 -33 40 -53 77 -11 21 -23 38 -26 38 -4 0 -10 11 -13 25
-4 14 -11 25 -16 25 -6 0 -10 7 -10 15 0 8 -4 15 -8 15 -9 0 -42 70 -42 88 0
7 -4 12 -10 12 -5 0 -12 11 -16 25 -3 14 -10 25 -14 25 -4 0 -11 11 -14 25 -4
14 -11 25 -16 25 -6 0 -10 9 -10 19 0 11 -11 41 -24 68 -64 130 -110 261 -100
286 7 18 24 23 24 8 0 -5 8 -12 19 -16 10 -3 31 -17 46 -31 15 -14 46 -37 68
-51 23 -14 48 -32 55 -40 7 -7 20 -13 28 -13 8 0 14 -4 14 -10 0 -5 7 -10 15
-10 8 0 15 -4 15 -10 0 -5 6 -10 14 -10 8 0 21 -6 28 -12 42 -39 229 -128 267
-128 12 0 21 -4 21 -10 0 -5 20 -10 44 -10 24 0 68 -5 97 -10 30 -6 90 -15
134 -20 150 -17 212 -27 225 -35 7 -4 53 -11 104 -16 50 -5 147 -16 216 -25
169 -22 425 -23 635 -1 94 10 216 22 272 26 55 5 106 12 112 15 5 4 50 11 98
16 48 6 108 13 133 16 25 2 68 11 95 19 28 8 77 21 110 30 33 9 71 20 85 25
14 4 61 16 105 26 44 10 82 21 85 25 3 3 19 9 35 11 31 6 75 21 132 45 17 7
34 13 37 13 3 0 30 11 60 25 30 14 60 25 65 25 6 0 11 5 11 10 0 6 8 10 18 10
17 0 60 17 104 41 10 5 24 9 32 9 7 0 19 7 26 15 7 8 21 15 31 15 11 0 19 5
19 10 0 6 6 10 13 10 17 0 125 56 164 86 17 13 36 24 42 24 6 0 11 4 11 9 0 5
8 11 18 15 24 8 52 27 78 53 11 13 24 23 28 23 4 0 14 6 21 13 33 29 45 37 55
37 5 0 10 7 10 15 0 8 5 15 10 15 16 0 132 113 313 303 20 22 37 41 37 43 0 2
8 12 18 22 31 33 62 72 62 78 0 4 11 17 25 30 14 13 25 26 25 29 0 3 18 30 40
60 22 30 40 58 40 64 0 5 4 11 8 13 13 5 92 129 92 144 0 8 7 14 15 14 8 0 15
8 16 18 0 9 9 31 19 47 17 27 44 75 69 122 20 39 60 129 66 151 4 12 11 22 16
22 5 0 9 11 9 25 0 14 4 25 9 25 5 0 11 18 15 40 3 22 11 40 16 40 6 0 10 7
10 16 0 15 23 92 41 139 8 21 10 32 29 155 6 41 16 91 22 110 14 49 4 295 -17
410 -9 52 -19 113 -22 135 -2 22 -7 47 -10 55 -10 22 -32 144 -42 225 -5 39
-14 83 -20 98 -6 16 -11 43 -11 62 0 19 -4 37 -10 40 -5 3 -10 19 -10 35 0 16
-6 41 -14 57 -8 15 -22 46 -31 68 -9 22 -20 49 -25 60 -5 11 -11 31 -14 45
-15 68 -31 120 -38 120 -5 0 -8 12 -8 28 0 15 -7 36 -15 46 -8 11 -15 30 -15
42 0 13 -4 26 -10 29 -5 3 -10 17 -10 29 0 13 -7 29 -15 36 -8 7 -15 18 -15
26 0 17 -33 88 -42 92 -5 2 -8 9 -8 16 0 14 -50 114 -81 161 -10 17 -22 38
-25 48 -4 9 -10 17 -15 17 -5 0 -9 6 -9 13 0 7 -10 24 -22 38 -25 27 -44 56
-55 79 -3 8 -17 25 -30 37 -13 12 -23 26 -23 32 0 5 -3 11 -8 13 -4 2 -18 17
-30 33 -43 56 -196 220 -271 290 -41 39 -94 89 -118 113 -24 23 -46 42 -49 42
-3 0 -11 6 -19 13 -7 6 -28 23 -46 37 -18 14 -38 30 -44 35 -14 13 -45 33 -65
42 -8 4 -26 17 -40 30 -14 13 -30 23 -37 23 -7 0 -13 4 -13 10 0 5 -17 17 -37
27 -21 9 -44 23 -51 30 -7 7 -20 13 -28 13 -8 0 -14 4 -14 9 0 5 -11 12 -25
15 -14 4 -25 11 -25 16 0 6 -8 10 -19 10 -10 0 -24 7 -31 15 -7 8 -19 15 -26
15 -8 0 -14 5 -14 10 0 6 -5 10 -11 10 -12 0 -162 109 -167 122 -2 4 -8 8 -14
8 -6 0 -26 11 -44 25 -18 14 -39 25 -47 25 -8 0 -17 7 -21 15 -3 8 -14 15 -25
15 -11 0 -21 3 -23 8 -2 4 -33 23 -70 42 -38 19 -68 38 -68 42 0 4 -5 8 -10 8
-18 0 -149 99 -188 143 -61 67 -73 84 -91 122 -7 17 -17 37 -22 45 -5 8 -12
22 -15 30 -3 8 -12 29 -20 47 -8 17 -14 36 -14 42 0 6 -4 11 -10 11 -5 0 -10
9 -10 20 0 11 -4 28 -10 38 -18 34 -39 87 -45 120 -9 45 16 43 52 -5 37 -51
156 -173 167 -173 5 0 19 -11 32 -25 13 -14 27 -25 32 -25 4 0 27 -18 50 -40
22 -22 44 -40 47 -40 4 0 13 -6 20 -12 33 -30 45 -38 55 -38 5 0 10 -7 10 -15
0 -8 7 -15 15 -15 8 0 15 -4 15 -9 0 -5 8 -11 18 -15 18 -6 53 -27 62 -37 12
-13 188 -116 220 -129 19 -7 42 -19 51 -27 8 -7 25 -13 37 -13 12 0 22 -4 22
-8 0 -9 49 -30 130 -56 30 -10 64 -21 75 -25 64 -25 93 -34 123 -38 17 -3 32
-9 32 -14 0 -5 6 -9 14 -9 16 0 114 -29 136 -40 9 -4 30 -11 48 -14 17 -4 34
-12 37 -17 4 -5 17 -9 29 -9 13 0 29 -7 36 -15 7 -8 23 -15 36 -15 13 0 24 -4
24 -10 0 -5 11 -10 24 -10 13 0 29 -7 36 -15 7 -8 21 -15 31 -15 11 0 19 -4
19 -10 0 -5 11 -12 25 -16 14 -3 25 -10 25 -15 0 -5 11 -9 25 -9 14 0 25 -4
25 -9 0 -5 8 -12 19 -16 10 -3 30 -16 43 -28 13 -12 37 -29 53 -37 17 -8 39
-24 50 -35 11 -12 40 -36 65 -55 51 -40 175 -164 229 -229 20 -25 46 -56 59
-69 12 -14 22 -34 22 -46 0 -12 7 -55 16 -96 11 -50 14 -100 10 -150 -3 -42
-2 -80 2 -86 14 -21 39 -22 56 -2 30 35 10 355 -23 366 -6 2 -11 13 -11 24 0
11 -11 31 -25 44 -14 13 -25 26 -25 29 0 13 -123 140 -204 210 -32 28 -71 62
-86 77 -16 16 -31 28 -35 28 -6 0 -21 11 -63 50 -15 14 -43 34 -62 44 -19 11
-37 22 -40 25 -9 10 -44 31 -62 37 -10 4 -18 10 -18 15 0 5 -9 9 -20 9 -11 0
-23 7 -26 15 -4 8 -17 15 -30 15 -13 0 -24 4 -24 10 0 5 -11 12 -25 16 -14 3
-25 10 -25 15 0 5 -11 9 -25 9 -14 0 -25 5 -25 10 0 6 -5 10 -11 10 -12 0 -66
22 -112 46 -16 8 -34 14 -41 14 -12 0 -59 19 -98 41 -10 5 -27 9 -37 9 -11 0
-22 4 -26 9 -3 5 -19 12 -35 16 -17 4 -30 11 -30 16 0 5 -11 9 -24 9 -13 0
-29 7 -36 15 -7 8 -19 15 -26 15 -8 0 -24 5 -37 12 -12 6 -29 15 -37 19 -8 4
-44 22 -80 39 -36 17 -81 40 -100 51 -36 20 -143 72 -170 83 -61 25 -105 76
-65 76 19 0 109 -27 137 -41 10 -5 29 -9 44 -9 14 0 34 -5 45 -11 21 -11 83
-24 181 -38 31 -5 62 -12 70 -17 7 -5 38 -12 68 -15 30 -4 93 -15 140 -24 47
-9 117 -21 155 -26 39 -5 108 -16 155 -24 47 -9 120 -20 162 -24 42 -5 81 -12
87 -16 6 -3 50 -10 99 -15 132 -14 195 -25 219 -38 12 -7 33 -12 46 -12 14 0
38 -7 53 -15 16 -8 39 -15 52 -15 12 0 22 -4 22 -10 0 -5 8 -10 17 -10 26 0
148 -63 202 -105 39 -30 191 -186 191 -196 0 -5 7 -9 15 -9 8 0 15 -5 15 -11
0 -7 11 -22 25 -35 14 -13 25 -28 25 -34 0 -6 7 -13 15 -16 8 -4 15 -12 15
-20 0 -8 5 -14 10 -14 6 0 10 -5 10 -11 0 -6 11 -25 24 -42 13 -18 27 -42 31
-54 3 -13 11 -23 16 -23 5 0 9 -6 9 -14 0 -8 11 -36 24 -63 13 -26 29 -68 36
-93 7 -25 18 -65 26 -90 42 -145 58 -445 29 -545 -8 -29 -15 -73 -15 -97 0
-24 -4 -48 -9 -54 -7 -8 -20 -95 -38 -274 -3 -25 -9 -49 -13 -55 -5 -5 -11
-31 -15 -57 -4 -27 -11 -48 -16 -48 -5 0 -9 -15 -9 -33 0 -18 -5 -38 -11 -44
-6 -6 -16 -21 -23 -34 -6 -12 -28 -33 -48 -45 l-37 -24 -27 28 c-15 15 -32 43
-38 62 -9 28 -17 36 -40 38 -27 3 -28 2 -22 -30 3 -18 9 -53 13 -77 8 -59 25
-90 58 -107 32 -16 65 -18 65 -4 0 6 8 10 18 10 33 0 135 110 172 187 19 40
38 73 43 73 4 0 7 8 7 19 0 10 7 32 15 47 8 16 15 37 15 46 0 9 5 20 10 23 6
3 10 19 10 35 0 16 4 31 9 34 5 3 12 26 15 51 4 24 11 47 17 50 5 4 9 24 9 45
0 21 5 51 11 67 20 51 44 302 55 571 7 160 -5 291 -28 316 -4 6 -8 18 -8 27 0
9 -7 22 -15 29 -8 7 -15 19 -15 28 0 8 -11 30 -25 48 -14 18 -25 40 -25 48 0
9 -4 16 -9 16 -5 0 -12 11 -15 25 -4 14 -11 25 -16 25 -6 0 -10 9 -10 20 0 11
-6 23 -14 26 -8 3 -17 16 -20 30 -4 13 -11 24 -16 24 -6 0 -10 7 -10 15 0 8
-4 15 -10 15 -5 0 -10 6 -10 13 0 7 -11 24 -25 39 -14 15 -25 32 -25 38 0 5
-4 10 -9 10 -5 0 -12 8 -15 18 -6 17 -159 182 -169 182 -4 0 -17 10 -30 23
-32 30 -66 57 -73 57 -3 0 -15 10 -27 23 -12 13 -38 32 -57 43 -19 10 -40 24
-47 29 -47 38 -87 61 -198 110 -33 15 -73 33 -88 41 -16 8 -40 14 -53 14 -13
0 -32 4 -42 10 -17 9 -93 25 -187 38 -27 4 -55 11 -62 15 -7 4 -40 12 -75 17
-35 5 -103 16 -153 25 -49 8 -119 19 -155 24 -36 5 -114 17 -175 26 -60 10
-141 21 -180 25 -38 4 -101 15 -140 24 -38 9 -86 20 -105 25 -19 4 -45 13 -57
19 -12 7 -33 12 -47 12 -14 0 -26 3 -26 8 0 4 -24 15 -52 25 -64 22 -122 49
-126 60 -2 4 -10 7 -17 7 -7 0 -28 8 -47 17 -63 31 -68 33 -96 33 -15 0 -37 7
-48 15 -10 8 -27 15 -37 15 -10 0 -35 11 -55 25 -20 14 -40 25 -45 25 -5 0
-14 6 -21 13 -8 7 -33 29 -56 48 -70 56 -90 76 -90 88 0 6 -5 11 -11 11 -28 0
-57 58 -33 67 15 5 86 -25 92 -39 2 -5 16 -8 31 -8 15 0 33 -6 40 -12 9 -10
64 -13 204 -13 191 0 230 5 314 41 17 8 36 14 42 14 6 0 11 5 11 10 0 6 5 10
10 10 6 0 18 8 28 17 10 10 42 38 71 63 30 25 62 53 73 63 10 9 22 17 27 17 4
0 20 11 35 25 15 14 31 25 35 25 4 0 14 11 21 25 7 14 17 25 21 25 10 0 69 59
69 70 0 5 4 10 8 12 5 2 30 32 55 68 26 36 50 70 54 75 5 6 17 27 28 48 11 20
23 37 27 37 5 0 8 11 8 24 0 13 3 26 8 28 4 2 14 19 24 38 64 136 78 168 78
178 0 7 5 12 10 12 6 0 10 8 10 18 0 17 17 60 41 104 5 10 9 26 9 37 0 10 7
24 15 31 8 7 15 25 15 41 0 16 5 29 10 29 6 0 10 9 10 21 0 11 6 33 14 47 16
33 55 144 67 192 4 19 15 60 25 90 9 30 20 78 24 107 5 28 12 57 16 64 8 14
19 101 33 281 5 64 12 122 16 128 9 15 22 232 35 575 6 154 14 320 19 370 8
87 3 196 -20 385 -6 47 -14 117 -19 157 -4 40 -11 77 -15 83 -4 6 -11 37 -16
68 -24 140 -28 155 -68 255 -8 20 -18 37 -23 37 -4 0 -8 9 -8 20 0 11 -11 38
-25 60 -14 22 -25 44 -25 49 0 5 -6 16 -13 23 -7 7 -21 30 -30 51 -10 20 -22
37 -27 37 -6 0 -10 6 -10 13 0 7 -11 24 -25 39 -14 15 -25 30 -25 33 0 19
-229 245 -249 245 -5 0 -11 4 -13 8 -13 31 -176 122 -219 122 -14 0 -30 5 -36
11 -22 22 -259 -3 -286 -30 -6 -6 -19 -11 -29 -11 -10 0 -18 -4 -18 -9 0 -5
-11 -12 -25 -15 -14 -4 -25 -11 -25 -16 0 -6 -5 -10 -10 -10 -17 0 -185 -158
-250 -234 -52 -62 -130 -207 -130 -242 0 -13 -4 -25 -9 -28 -5 -3 -12 -32 -16
-63 -4 -32 -10 -62 -15 -68 -4 -5 -10 -39 -13 -75 -3 -36 -10 -96 -17 -133
-12 -70 -7 -137 10 -137 6 0 10 -7 10 -15 0 -16 9 -19 34 -9 12 5 16 21 16 66
0 57 4 92 30 248 6 36 14 83 17 104 3 22 12 46 19 54 8 7 14 24 14 38 0 24 2
30 33 92 9 19 17 40 17 48 0 8 4 14 9 14 5 0 11 8 15 18 8 25 28 54 54 79 12
12 22 26 22 30 0 4 19 24 41 43 23 19 50 43 60 53 11 9 23 17 27 17 5 0 24 7
42 16 28 15 44 15 114 6 141 -19 160 -23 191 -37 82 -37 102 -47 120 -58 21
-13 155 -144 155 -152 0 -5 34 -47 63 -77 9 -10 17 -22 17 -28 0 -5 5 -10 10
-10 6 0 10 -6 10 -14 0 -8 6 -21 13 -28 18 -20 37 -50 43 -70 4 -10 10 -18 15
-18 5 0 9 -6 9 -14 0 -17 32 -80 43 -84 4 -2 7 -14 7 -27 0 -12 7 -28 15 -35
8 -7 15 -22 15 -34 0 -12 4 -26 9 -31 24 -26 79 -266 91 -400 4 -49 13 -112
19 -139 15 -61 15 -567 0 -761 -20 -278 -28 -362 -44 -460 -9 -55 -20 -129
-25 -165 -16 -131 -33 -220 -42 -220 -4 0 -8 -17 -8 -37 -1 -21 -7 -49 -15
-63 -8 -14 -14 -36 -15 -51 0 -14 -4 -29 -9 -35 -4 -5 -16 -43 -26 -84 -10
-41 -21 -84 -26 -95 -8 -22 -26 -94 -38 -163 -4 -24 -13 -48 -19 -54 -7 -7
-12 -24 -12 -39 0 -15 -4 -31 -10 -34 -5 -3 -10 -17 -10 -29 0 -13 -7 -29 -15
-36 -8 -7 -15 -21 -15 -30 0 -10 -3 -20 -7 -22 -11 -4 -43 -67 -43 -84 0 -8
-4 -14 -9 -14 -5 0 -12 -11 -15 -25 -4 -14 -11 -25 -16 -25 -6 0 -10 -7 -10
-15 0 -8 -4 -15 -10 -15 -5 0 -12 -11 -16 -25 -3 -14 -10 -25 -15 -25 -5 0 -9
-4 -9 -10 0 -5 -8 -18 -17 -28 -30 -31 -63 -72 -63 -77 0 -11 -151 -155 -189
-181 -23 -14 -41 -29 -41 -33 0 -3 -18 -15 -40 -25 -22 -11 -40 -23 -40 -28 0
-4 -15 -8 -34 -8 -19 0 -38 -4 -41 -10 -8 -13 -172 -13 -180 0 -3 6 -17 10
-31 10 -13 0 -24 4 -24 9 0 5 -10 13 -22 17 -12 3 -29 14 -38 23 -34 33 -89
118 -105 161 -10 25 -23 59 -30 75 -7 17 -18 48 -25 70 -7 22 -19 54 -26 70
-7 17 -17 50 -24 75 -6 25 -16 59 -22 75 -5 17 -14 46 -18 65 -18 76 -32 126
-40 145 -5 11 -11 34 -14 50 -2 17 -12 59 -21 95 -9 36 -20 92 -25 125 -5 33
-14 76 -20 95 -5 19 -10 58 -10 87 0 28 -4 54 -9 57 -5 3 -12 30 -16 61 -3 30
-11 57 -16 60 -18 12 -10 94 14 133 45 72 61 169 53 320 -3 75 -11 141 -16
146 -6 6 -10 16 -10 23 0 19 -53 103 -66 103 -13 0 -27 29 -49 105 -10 33 -21
68 -26 77 -12 24 -11 65 1 73 6 3 10 37 10 75 0 38 -4 72 -10 75 -5 3 -10 16
-10 28 0 12 -7 31 -15 41 -19 25 -19 55 0 80 8 11 15 30 15 43 0 13 4 23 9 23
5 0 13 14 16 32 4 18 11 39 15 48 20 38 40 89 40 102 0 8 4 18 9 23 35 37 54
696 30 1020 -6 77 -14 217 -19 310 -17 373 -30 612 -36 645 -3 19 -9 82 -14
140 -5 58 -16 161 -25 230 -9 69 -20 171 -24 227 -5 55 -12 106 -16 113 -4 6
-11 55 -15 108 -5 53 -16 156 -25 227 -8 72 -20 173 -25 225 -5 52 -17 142
-25 200 -9 58 -19 139 -23 180 -5 42 -12 82 -16 89 -5 7 -13 41 -18 74 -5 34
-11 78 -14 97 -3 19 -12 49 -20 67 -8 17 -14 45 -14 62 0 17 -4 31 -10 31 -5
0 -10 8 -10 18 0 9 -6 37 -14 62 -8 25 -23 72 -32 105 -10 33 -21 65 -25 70
-3 6 -9 27 -13 48 -4 20 -12 37 -17 37 -6 0 -9 10 -7 23 3 20 10 22 63 25 33
2 63 8 67 15 9 15 117 16 149 1 54 -25 121 -43 137 -37 9 4 28 20 42 37 14 16
33 38 43 48 18 19 62 24 72 9 3 -6 26 -20 50 -32 25 -12 45 -26 45 -31 0 -4
22 -8 48 -8 47 0 49 1 66 41 20 44 18 72 -9 159 -9 30 -19 67 -22 83 -3 15 -9
27 -14 27 -5 0 -9 6 -9 14 0 8 -6 21 -14 28 -7 8 -17 24 -20 36 -4 12 -12 22
-17 22 -5 0 -9 7 -9 15 0 8 -4 15 -10 15 -5 0 -10 5 -10 11 0 11 -94 107 -140
144 -64 50 -100 75 -109 75 -6 0 -11 4 -11 10 0 5 -11 12 -25 16 -14 3 -25 10
-25 14 0 4 -8 10 -17 14 -10 3 -31 14 -48 25 -16 11 -38 20 -47 20 -10 1 -18
5 -18 11 0 5 -11 12 -25 16 -14 3 -25 10 -25 14 0 5 -13 11 -30 15 -16 4 -30
11 -30 16 0 5 -7 9 -15 9 -8 0 -23 4 -33 10 -9 5 -35 16 -57 25 -22 9 -47 21
-55 26 -8 5 -22 12 -30 15 -57 22 -92 47 -152 108 -37 38 -68 74 -68 80 0 11
-23 43 -72 99 -16 17 -28 35 -28 39 0 5 -5 8 -10 8 -6 0 -21 10 -33 23 -38 40
-93 77 -113 76 -10 0 -30 -6 -44 -12z m443 -721 c9 -7 17 -22 17 -34 0 -11 5
-22 12 -24 15 -5 1 -28 -17 -28 -17 0 -45 50 -45 80 0 23 8 25 33 6z m-13
-4946 c0 -5 -22 -10 -50 -10 -27 0 -50 5 -50 10 0 6 23 10 50 10 28 0 50 -4
50 -10z m-620 -1005 c0 -8 7 -15 15 -15 9 0 15 -9 15 -24 0 -13 6 -26 13 -28
9 -4 12 -49 12 -184 0 -151 -3 -186 -19 -226 -20 -50 -32 -60 -65 -51 -14 3
-21 13 -21 28 0 13 -4 25 -9 27 -5 2 -15 41 -21 88 -14 99 -6 252 16 317 21
61 64 107 64 68z m1220 -52 c0 -7 4 -13 9 -13 9 0 25 -127 25 -205 0 -128 -30
-249 -63 -257 -26 -6 -51 2 -51 18 0 8 -8 26 -17 41 -14 21 -17 53 -17 192 -1
146 2 173 19 212 11 24 27 52 35 61 14 17 16 16 37 -9 13 -14 23 -32 23 -40z
m-975 -255 c15 -30 15 -34 -1 -45 -24 -18 -34 -7 -34 38 0 47 13 50 35 7z
m685 -14 c0 -8 -4 -14 -10 -14 -5 0 -10 9 -10 21 0 11 5 17 10 14 6 -3 10 -13
10 -21z m210 -454 c0 -44 -21 -55 -40 -21 -19 36 -13 61 15 61 23 0 25 -4 25
-40z m-1079 -16 c6 -31 -5 -64 -21 -64 -6 0 -10 13 -10 28 0 15 -6 34 -12 40
-10 10 -10 15 2 22 22 14 34 7 41 -26z m1079 -109 c0 -8 -7 -15 -15 -15 -8 0
-15 7 -15 15 0 8 7 15 15 15 8 0 15 -7 15 -15z m-1220 -365 c0 -5 -4 -10 -10
-10 -5 0 -10 5 -10 10 0 6 5 10 10 10 6 0 10 -4 10 -10z m4 -194 c-8 -28 -8
-27 -28 -20 -19 7 -22 50 -3 57 20 7 38 -14 31 -37z m4 -163 c-2 -31 -7 -39
-25 -41 -21 -3 -23 1 -23 37 0 37 2 41 26 41 23 0 25 -3 22 -37z m573 -47 c5
-6 9 -17 9 -25 0 -9 -6 -7 -20 9 -22 25 -23 33 -12 70 6 23 7 22 10 -10 2 -19
8 -39 13 -44z m669 50 c0 -11 -19 -15 -25 -6 -3 5 1 10 9 10 9 0 16 -2 16 -4z
m-270 -146 c0 -11 -4 -20 -10 -20 -5 0 -10 9 -10 20 0 11 5 20 10 20 6 0 10
-9 10 -20z m310 -85 c0 -27 -6 -30 -29 -16 -12 8 -12 11 0 25 20 22 29 20 29
-9z m-1030 -85 c0 -5 -4 -10 -10 -10 -5 0 -10 5 -10 10 0 6 5 10 10 10 6 0 10
-4 10 -10z m790 -50 c0 -5 -7 -10 -15 -10 -8 0 -15 5 -15 10 0 6 7 10 15 10 8
0 15 -4 15 -10z m-350 -904 c0 -9 4 -16 9 -16 5 0 13 -10 17 -22 4 -13 10 -25
13 -28 4 -3 21 -32 37 -65 39 -77 56 -106 72 -123 6 -7 12 -20 12 -28 0 -8 5
-14 10 -14 6 0 10 -5 10 -10 0 -12 10 -25 53 -70 15 -15 27 -31 27 -34 0 -6
32 -46 63 -78 9 -10 17 -20 17 -23 0 -3 37 -40 82 -83 207 -196 248 -241 248
-272 0 -11 4 -20 9 -20 5 0 14 -19 19 -42 6 -24 18 -70 27 -103 9 -33 19 -76
22 -95 3 -19 9 -39 13 -45 4 -5 11 -29 15 -52 4 -24 11 -45 16 -49 5 -3 9 -20
9 -37 0 -18 7 -41 15 -51 8 -11 15 -31 15 -45 0 -13 4 -38 9 -55 30 -99 38
-143 60 -316 7 -47 16 -114 22 -150 14 -80 6 -336 -16 -520 -8 -74 -19 -176
-24 -226 -4 -50 -12 -97 -17 -105 -4 -8 -12 -36 -16 -64 -13 -88 -24 -139 -36
-162 -7 -12 -12 -33 -12 -47 0 -14 -4 -27 -9 -30 -5 -4 -12 -24 -16 -46 -4
-22 -11 -42 -16 -46 -5 -3 -9 -14 -9 -25 0 -23 -27 -115 -41 -141 -5 -10 -9
-28 -9 -41 0 -13 -4 -27 -9 -32 -6 -6 -14 -28 -20 -50 -5 -22 -17 -65 -26 -95
-9 -30 -20 -70 -23 -88 l-7 -34 -67 70 c-65 68 -105 102 -120 102 -3 0 -5 -27
-3 -60 5 -100 -24 -157 -110 -210 -30 -19 -55 -38 -55 -42 0 -7 -34 -24 -105
-53 -89 -35 -96 -40 -102 -66 -3 -18 -15 -29 -37 -37 -45 -17 -70 -15 -119 7
-37 17 -130 41 -157 41 -15 0 -12 -27 5 -61 13 -24 14 -36 4 -69 -10 -34 -10
-43 4 -58 16 -17 16 -19 -7 -31 -13 -8 -29 -10 -35 -7 -6 4 -22 -4 -36 -18
-38 -39 -68 -56 -93 -56 -14 0 -36 -11 -51 -25 -55 -54 -109 -95 -125 -95 -9
0 -16 -4 -16 -9 0 -5 -17 -16 -37 -26 -45 -20 -115 -58 -147 -79 -13 -8 -27
-11 -32 -6 -25 25 -232 114 -287 124 -13 2 -47 14 -76 26 -28 13 -55 19 -59
15 -4 -4 -2 -10 5 -12 82 -29 263 -294 263 -384 0 -18 -4 -48 -10 -68 -24 -92
-42 -182 -37 -187 15 -15 87 42 109 85 54 105 142 257 158 273 10 9 20 22 22
28 1 5 28 12 58 15 30 3 88 13 128 22 59 14 80 15 115 6 29 -8 56 -9 82 -3 71
17 121 12 150 -13 26 -22 27 -24 13 -57 -8 -19 -22 -41 -31 -49 -26 -21 -20
-31 16 -31 27 0 47 13 108 69 85 80 125 95 236 88 73 -4 171 16 256 52 l47 20
0 -42 c0 -24 -4 -47 -9 -52 -17 -19 -34 -131 -34 -225 0 -52 7 -147 17 -210
10 -63 21 -151 26 -195 9 -100 31 -205 42 -205 4 0 8 -11 8 -24 0 -13 7 -29
15 -36 8 -7 15 -20 15 -30 0 -9 8 -24 19 -34 27 -25 42 -2 31 49 -25 116 -32
141 -40 157 -6 10 -10 39 -10 65 0 27 -7 73 -15 103 -18 66 -20 298 -4 350 6
19 15 69 19 110 20 181 45 277 74 286 20 6 51 18 120 49 19 8 41 15 50 15 17
0 21 -27 7 -49 -11 -18 5 -52 46 -99 l28 -32 19 34 c12 23 23 32 35 29 14 -3
20 10 34 72 21 90 52 165 68 165 6 0 39 20 73 44 33 23 88 58 121 76 92 51
133 82 222 169 55 54 81 86 77 96 -7 17 -27 19 -54 5 -25 -13 -33 2 -15 26 32
42 2 79 -72 88 -201 25 -450 34 -557 20 -26 -3 -47 -2 -45 2 3 5 15 32 28 59
30 63 57 123 70 155 6 14 15 32 20 40 5 8 17 33 27 55 11 22 22 42 27 43 4 2
7 12 7 21 0 16 17 59 41 103 5 10 9 24 9 32 0 8 8 29 17 48 31 62 33 68 33 92
0 14 7 31 15 40 8 8 15 23 15 33 1 21 34 120 44 130 3 3 6 16 6 27 0 29 29
157 41 178 5 10 9 35 9 56 0 21 7 63 16 93 13 44 16 102 16 309 0 164 -5 267
-12 290 -6 19 -15 62 -20 95 -15 100 -32 179 -41 189 -5 6 -9 21 -9 34 0 22
-20 92 -41 147 -4 11 -10 34 -13 50 -2 17 -10 50 -16 75 -24 95 -30 132 -30
186 0 53 1 55 23 48 12 -3 24 -11 25 -15 2 -5 12 -9 22 -9 11 0 23 -6 27 -13
4 -8 15 -17 23 -20 17 -8 53 -30 60 -37 10 -10 45 -31 63 -36 9 -4 17 -10 17
-15 0 -5 6 -9 14 -9 8 0 21 -6 28 -13 7 -7 29 -21 48 -30 38 -19 72 -39 80
-47 10 -10 45 -31 63 -36 9 -4 17 -10 17 -14 0 -4 11 -11 25 -14 14 -4 25 -11
25 -16 0 -6 7 -10 15 -10 8 0 15 -4 15 -10 0 -5 11 -12 25 -16 14 -3 25 -10
25 -15 0 -5 6 -9 14 -9 8 0 16 -7 20 -15 3 -8 11 -15 18 -15 7 0 24 -10 38
-23 14 -13 40 -32 58 -42 17 -11 32 -23 32 -27 0 -4 7 -8 15 -8 8 0 15 -7 15
-15 0 -8 4 -15 10 -15 10 0 32 -17 94 -72 17 -16 34 -28 38 -28 5 0 8 -7 8
-15 0 -8 5 -15 10 -15 9 0 120 -108 120 -116 0 -2 8 -12 18 -22 26 -28 62 -72
62 -76 0 -2 18 -24 40 -47 22 -24 40 -49 40 -56 0 -7 5 -13 10 -13 6 0 10 -7
10 -15 0 -8 4 -15 10 -15 5 0 12 -11 16 -25 3 -14 9 -25 13 -25 3 0 15 -17 26
-37 11 -21 30 -55 42 -75 13 -21 23 -44 23 -53 0 -8 4 -15 9 -15 5 0 17 -25
27 -56 9 -31 23 -62 31 -69 7 -8 13 -20 13 -28 0 -8 7 -28 15 -43 8 -16 15
-37 15 -46 0 -10 4 -18 9 -18 5 0 11 -12 14 -27 4 -29 40 -135 63 -188 7 -16
20 -57 29 -90 10 -33 21 -68 26 -77 5 -10 9 -31 9 -47 0 -16 4 -31 10 -33 15
-5 35 -236 35 -393 -1 -139 -19 -311 -36 -330 -5 -5 -9 -20 -9 -35 0 -27 -32
-135 -43 -146 -4 -4 -7 -16 -7 -27 0 -10 -6 -31 -14 -45 -13 -26 -18 -36 -50
-114 -32 -77 -49 -113 -55 -118 -3 -3 -19 -32 -36 -65 -16 -33 -35 -64 -41
-70 -20 -18 -114 -155 -114 -165 0 -5 -4 -10 -10 -10 -5 0 -17 -17 -27 -37 -9
-21 -23 -44 -30 -51 -7 -7 -13 -19 -13 -27 0 -7 -4 -15 -8 -17 -4 -1 -29 -34
-54 -73 -26 -38 -55 -79 -65 -90 -10 -11 -30 -37 -46 -57 -52 -70 -168 -179
-242 -227 -22 -14 -41 -29 -43 -33 -2 -5 -10 -8 -17 -8 -7 0 -15 -7 -19 -15
-3 -8 -12 -15 -21 -15 -9 0 -28 -11 -43 -25 -15 -14 -31 -25 -36 -25 -5 0 -24
-11 -42 -25 -18 -14 -35 -25 -39 -25 -3 0 -32 -17 -63 -37 -65 -43 -84 -53
-189 -107 -16 -8 -50 -26 -77 -40 -27 -14 -59 -26 -72 -26 -13 0 -26 -4 -29
-10 -3 -5 -21 -10 -38 -10 -18 -1 -43 -7 -57 -15 -14 -8 -42 -14 -63 -15 -20
0 -45 -4 -55 -9 -19 -11 -124 -31 -192 -38 -25 -2 -54 -8 -65 -13 -22 -10
-122 -26 -250 -40 -44 -5 -96 -13 -115 -19 -54 -17 -440 -14 -525 4 -38 8 -89
15 -113 15 -23 0 -50 4 -60 10 -17 9 -82 23 -192 40 -89 13 -159 31 -166 41
-3 5 -18 9 -33 9 -15 0 -32 5 -38 11 -6 6 -29 15 -50 20 -109 24 -147 35 -220
66 -17 7 -38 13 -47 13 -9 0 -16 5 -16 10 0 6 -13 10 -29 10 -17 0 -32 4 -36
9 -3 5 -19 12 -35 16 -17 4 -30 11 -30 16 0 5 -9 9 -21 9 -11 0 -27 7 -35 15
-9 8 -24 15 -35 15 -10 0 -19 4 -19 8 0 8 -69 42 -84 42 -4 0 -19 11 -34 25
-15 14 -33 25 -40 25 -7 0 -15 7 -18 15 -4 8 -12 15 -19 15 -6 0 -24 11 -39
25 -15 14 -30 25 -33 25 -9 0 -293 291 -293 301 0 5 -7 9 -15 9 -8 0 -15 5
-15 11 0 6 -17 26 -37 45 -31 30 -38 42 -38 75 0 23 6 44 14 49 11 6 13 26 6
102 -10 116 -10 125 -1 333 4 94 14 193 22 222 8 28 14 69 14 91 0 23 5 44 10
47 6 3 10 25 10 48 1 23 7 53 15 67 8 14 14 42 15 62 0 20 4 39 9 43 6 3 13
26 17 50 3 25 10 48 15 51 5 3 9 17 9 32 0 23 10 58 40 137 24 67 33 93 37
118 3 15 9 30 14 33 5 3 9 18 9 33 0 16 7 34 15 41 8 7 15 23 15 36 0 14 4 32
10 42 22 40 90 221 90 238 0 7 7 17 15 24 8 7 15 23 15 36 0 13 5 24 10 24 6
0 10 8 10 18 0 10 21 58 46 107 26 50 52 100 58 112 6 13 14 23 19 23 4 0 7 6
7 13 0 7 11 24 25 39 14 15 25 31 25 35 0 5 10 14 21 22 27 16 42 -1 34 -38
-10 -39 -6 -481 5 -561 20 -154 27 -196 38 -223 7 -16 12 -41 12 -57 0 -16 5
-32 10 -35 6 -3 10 -15 10 -27 0 -11 6 -32 14 -46 39 -74 66 -135 66 -148 0
-8 4 -14 10 -14 5 0 12 -11 16 -25 3 -14 10 -25 15 -25 5 0 9 -5 9 -10 0 -6
18 -35 40 -65 22 -30 40 -56 40 -59 0 -3 12 -18 28 -34 15 -16 38 -43 52 -60
14 -17 31 -31 38 -32 6 0 12 -4 12 -10 0 -5 8 -10 19 -10 10 0 24 -7 31 -15
10 -12 36 -15 116 -15 94 0 108 2 144 25 22 14 44 25 50 25 6 0 13 7 16 15 4
8 11 15 18 15 6 0 20 18 30 40 11 22 23 40 28 40 4 0 8 9 8 20 0 11 7 23 15
26 8 4 15 17 15 30 0 13 4 24 8 24 4 0 16 26 26 58 10 31 22 68 27 82 11 32
29 124 35 175 3 22 12 86 20 141 18 130 18 263 -1 388 -8 55 -15 119 -15 143
0 23 -4 43 -9 43 -5 0 -12 11 -15 25 -4 14 -11 25 -16 25 -6 0 -10 5 -10 11 0
17 -57 69 -76 69 -9 0 -27 -11 -40 -25 -13 -14 -28 -25 -34 -25 -20 0 -10 -31
14 -41 19 -9 28 -26 41 -78 22 -93 17 -493 -9 -596 -9 -38 -20 -85 -23 -102
-3 -18 -9 -33 -14 -33 -5 0 -9 -5 -9 -12 0 -42 -102 -198 -130 -198 -4 0 -10
-5 -12 -12 -5 -15 -111 -15 -116 1 -2 6 -8 11 -14 11 -14 0 -98 84 -98 99 0 6
-4 11 -10 11 -5 0 -10 6 -10 14 0 7 -7 19 -15 26 -8 7 -15 22 -15 35 0 12 -3
25 -6 28 -12 12 -43 112 -44 139 0 15 -4 29 -9 33 -5 3 -13 31 -17 63 -3 31
-10 62 -14 67 -14 19 -24 201 -24 470 0 269 8 376 39 510 8 39 19 86 24 106 4
20 17 56 28 80 11 24 23 51 27 59 12 29 39 67 100 139 22 25 47 54 55 65 9 10
35 38 59 62 23 25 42 47 42 49 0 5 35 48 63 77 9 10 17 20 17 23 0 3 11 18 25
33 14 15 25 31 25 36 0 5 10 18 23 30 12 12 31 39 41 59 11 20 22 37 26 37 5
0 11 11 14 25 4 14 11 25 16 25 6 0 10 5 10 11 0 6 11 25 25 43 14 18 25 39
25 46 0 7 11 28 25 46 14 18 25 40 25 48 0 9 4 16 8 16 7 0 16 18 46 90 3 8
10 22 15 30 15 24 41 87 41 99 0 6 5 11 10 11 6 0 10 16 10 35 0 19 4 35 9 35
5 0 12 18 16 40 4 22 11 40 16 40 5 0 9 15 9 33 0 18 5 38 10 43 10 10 19 47
39 169 5 28 14 63 20 78 6 16 11 48 11 72 0 24 4 46 9 49 5 3 12 36 16 73 4
36 11 74 15 82 5 9 11 29 15 44 l6 29 19 -25 c11 -14 20 -32 20 -41z m-2582
-1868 c-2 -16 -11 -24 -28 -26 -48 -7 -86 -62 -97 -139 -3 -24 -10 -43 -14
-43 -14 0 -10 -40 5 -56 8 -8 18 -14 22 -14 11 0 44 42 44 57 0 7 5 13 10 13
6 0 10 8 10 19 0 10 7 24 15 31 8 7 15 19 15 26 0 8 7 14 16 14 13 0 15 -7 10
-36 -4 -19 -16 -50 -26 -67 -11 -18 -23 -39 -27 -47 -12 -28 -63 -70 -83 -70
-46 0 -95 93 -60 115 6 3 10 21 10 39 0 19 7 39 15 46 8 7 15 23 15 36 0 13 5
24 10 24 6 0 10 6 10 14 0 8 15 30 33 50 24 27 40 36 65 36 29 0 33 -3 30 -22z
m187 -49 c5 -14 1 -25 -12 -34 -59 -42 -62 -48 -65 -136 -3 -75 -5 -84 -22
-84 -27 0 -64 51 -48 67 7 7 12 26 12 43 0 16 7 43 15 59 8 15 15 32 15 37 0
4 12 22 28 38 32 35 68 40 77 10z m-534 -232 c-6 -6 -11 -19 -11 -29 0 -10 -4
-18 -10 -18 -17 0 -11 62 8 83 17 19 17 19 20 -3 2 -12 -1 -27 -7 -33z m274
-334 c19 -22 25 -38 25 -75 0 -26 -4 -49 -9 -52 -4 -3 -11 -19 -14 -36 -8 -37
-52 -106 -91 -142 -29 -28 -66 -37 -66 -18 0 6 -5 10 -11 10 -24 0 -38 36 -39
100 0 63 25 160 42 160 4 0 8 6 8 14 0 8 14 26 31 40 42 36 90 35 124 -1z
m-474 -357 c-6 -7 -13 -38 -17 -70 -10 -85 -26 -53 -21 40 4 78 20 164 35 194
4 8 8 -23 10 -68 2 -47 -2 -89 -7 -96z m365 -201 c4 -8 12 -15 20 -15 19 0 18
-116 -1 -150 -8 -14 -14 -35 -15 -48 0 -37 -53 -83 -97 -85 -59 -2 -83 25 -83
93 1 32 7 63 15 74 8 11 15 27 15 35 0 9 16 37 35 64 30 41 40 47 70 47 22 0
38 -6 41 -15z m3310 -640 c9 -14 14 -28 10 -32 -8 -9 -46 27 -46 44 0 21 18
15 36 -12z m-53 -77 c18 -37 12 -43 -26 -29 -16 6 -27 18 -27 29 0 43 32 43
53 0z m775 -15 c7 -11 6 -25 -1 -40 -14 -32 -61 -29 -65 5 -7 44 46 72 66 35z
m-906 -63 c-3 -25 -7 -28 -18 -19 -17 14 -18 31 -2 47 17 17 25 6 20 -28z
m-72 -39 c0 -25 -22 -42 -40 -31 -12 7 -11 12 4 29 24 26 36 27 36 2z m529 3
c-6 -7 -28 -12 -50 -11 -33 1 -36 3 -20 12 11 5 34 10 50 11 25 1 29 -2 20
-12z m405 10 c9 -3 14 -10 11 -15 -7 -10 -35 0 -35 12 0 11 3 11 24 3z m-1050
-53 c9 -14 -4 -41 -19 -41 -18 0 -26 15 -19 34 7 17 29 21 38 7z m703 -23 c-3
-8 -6 -5 -6 6 -1 11 2 17 5 13 3 -3 4 -12 1 -19z m158 -18 c16 -16 26 -30 22
-30 -8 0 -57 46 -57 54 0 11 5 7 35 -24z m-110 -30 c5 -17 4 -22 -3 -15 -5 6
-13 21 -17 35 -5 17 -4 22 3 15 5 -5 13 -21 17 -35z m315 30 c0 -5 -8 -10 -17
-10 -15 0 -16 2 -3 10 19 12 20 12 20 0z m-343 -47 c9 -25 46 -61 74 -72 l24
-10 -25 0 c-14 0 -33 4 -43 8 -20 7 -62 91 -46 91 5 0 13 -8 16 -17z m-837 -8
c0 -10 -10 -15 -32 -15 -30 0 -31 1 -12 15 25 19 44 19 44 0z m-190 -25 c0 -5
-7 -7 -15 -4 -8 4 -15 8 -15 10 0 2 7 4 15 4 8 0 15 -4 15 -10z m-2530 -75 c0
-14 -4 -25 -10 -25 -5 0 -10 11 -10 25 0 14 5 25 10 25 6 0 10 -11 10 -25z
m3000 5 c-85 -28 -243 -72 -291 -79 -62 -10 -159 -40 -173 -52 -6 -5 -17 -9
-25 -9 -19 0 34 34 70 45 13 4 31 13 39 20 27 24 281 81 370 83 32 0 33 0 10
-8z m165 -49 c-12 -10 -65 -24 -65 -16 0 2 15 9 33 14 43 12 42 12 32 2z m-5
-45 c-6 -8 -37 -20 -68 -26 -31 -6 -73 -15 -92 -20 -130 -33 -474 -109 -477
-106 -7 7 59 34 101 41 21 3 46 10 55 15 9 4 47 13 86 20 38 6 83 17 100 24
96 43 179 63 264 65 37 1 42 -1 31 -13z m342 -11 c-6 -32 -19 -42 -16 -12 1
12 3 25 3 30 1 4 5 7 10 7 4 0 6 -11 3 -25z m-3422 -82 c0 -16 -6 -23 -20 -23
-23 0 -35 37 -25 77 l6 27 20 -30 c10 -16 19 -39 19 -51z m3283 46 c-18 -18
-115 -50 -111 -37 4 11 83 47 108 47 10 1 11 -2 3 -10z m-233 -89 c-10 -20
-65 -40 -110 -40 -14 0 -49 -7 -78 -14 -29 -8 -87 -17 -130 -21 -42 -3 -92 -8
-110 -11 -21 -3 -32 -1 -28 5 9 15 122 48 206 61 41 6 107 17 145 25 105 20
118 19 105 -5z m-2984 -24 c14 -15 20 -96 6 -96 -18 0 -42 43 -42 75 0 37 12
44 36 21z m1428 -15 c3 -4 3 -11 0 -14 -8 -8 -34 3 -34 14 0 11 27 12 34 0z
m649 -21 c7 -28 -40 -47 -135 -55 l-73 -6 45 24 c115 59 155 68 163 37z m-528
-82 c6 -6 0 -8 -19 -6 -16 2 -31 9 -34 17 -3 10 2 11 19 6 13 -4 29 -12 34
-17z m-1455 -89 c0 -5 -4 -9 -10 -9 -5 0 -10 7 -10 16 0 8 5 12 10 9 6 -3 10
-10 10 -16z m1500 0 c-13 -23 -33 -21 -38 4 -3 12 4 17 23 17 23 0 25 -2 15
-21z m16 -75 c-30 -21 -44 -16 -17 7 13 11 27 17 30 13 3 -3 -3 -12 -13 -20z
m-28 -154 c-11 -22 -24 -40 -29 -40 -14 0 -11 11 14 47 30 45 39 41 15 -7z
m4021 -698 c11 -20 4 -62 -10 -62 -5 0 -9 -9 -9 -19 0 -26 -101 -131 -126
-131 -11 0 -25 -5 -32 -12 -9 -9 -16 -7 -32 7 -44 40 -3 131 101 222 23 20 97
16 108 -5z m-489 -356 c0 -26 -9 -44 -39 -76 -37 -39 -40 -41 -91 -38 -39 2
-56 8 -66 23 -17 26 -2 57 18 37 6 -6 30 -12 52 -12 31 0 46 6 63 27 13 14 23
30 23 35 0 11 22 37 33 38 4 0 7 -15 7 -34z m217 -35 c13 -20 4 -52 -30 -106
-18 -30 -100 -105 -113 -105 -7 0 -14 -5 -16 -11 -2 -6 -19 -11 -38 -12 -34
-2 -35 -1 -38 40 -2 31 3 52 23 83 30 47 61 80 75 80 6 0 10 4 10 9 0 10 67
39 95 40 11 1 26 -8 32 -18z m-597 -337 c0 -30 -77 -134 -100 -134 -5 0 -10
-4 -10 -10 0 -14 -39 -12 -54 3 -24 24 -35 72 -20 92 12 16 16 16 31 4 10 -8
21 -19 26 -26 14 -23 77 17 77 49 0 10 7 18 15 18 8 0 15 7 15 16 0 8 5 12 10
9 6 -3 10 -13 10 -21z m264 -90 c9 -8 16 -19 16 -23 0 -16 -32 -71 -41 -71 -5
0 -9 -5 -9 -11 0 -12 -20 -31 -85 -83 -62 -48 -81 -56 -135 -56 -45 0 -52 3
-60 26 -13 34 -3 71 22 77 15 4 22 -1 30 -24 8 -22 16 -29 37 -29 45 0 141 95
141 140 0 5 -15 10 -34 10 -44 0 -53 13 -22 33 20 14 45 19 108 25 9 1 24 -5
32 -14z m432 -78 c7 -17 -25 -65 -43 -66 -7 0 -13 -4 -13 -10 0 -5 -11 -10
-25 -10 -14 0 -25 3 -25 6 0 9 83 94 92 94 5 0 11 -7 14 -14z m-931 -701 c-22
-19 -48 -37 -57 -41 -10 -3 -18 -10 -18 -15 0 -5 -7 -9 -15 -9 -8 0 -15 -4
-15 -10 0 -5 -9 -10 -20 -10 -34 0 -31 4 51 73 40 34 62 46 89 46 23 1 23 -1
-15 -34z"/>
<path d="M7168 6336 c-10 -7 -18 -18 -18 -25 0 -6 -4 -11 -8 -11 -20 0 -43
-66 -40 -114 4 -62 27 -81 58 -49 11 12 20 31 20 42 0 11 4 22 9 25 5 3 12 22
15 41 4 19 11 35 16 35 14 0 12 44 -2 58 -15 15 -29 15 -50 -2z"/>
<path d="M7075 5742 c-11 -10 -26 -28 -32 -40 -16 -26 -17 -108 -2 -117 17
-11 59 4 59 21 0 8 7 25 16 39 20 30 16 109 -6 112 -8 2 -24 -5 -35 -15z"/>
<path d="M11137 5093 c-4 -3 -7 -17 -7 -31 0 -18 4 -23 16 -18 9 3 18 6 20 6
2 0 4 6 4 14 0 17 -24 38 -33 29z"/>
<path d="M12608 2915 c-7 -9 -19 -22 -25 -30 -16 -16 -17 -41 -3 -50 6 -3 10
-1 10 4 0 6 6 11 13 11 12 0 37 44 37 67 0 18 -16 16 -32 -2z"/>
</g>
</svg>
