<?xml version="1.0" standalone="no"?>
<!DOCTYPE svg PUBLIC "-//W3C//DTD SVG 20010904//EN"
 "http://www.w3.org/TR/2001/REC-SVG-20010904/DTD/svg10.dtd">
<svg version="1.0" xmlns="http://www.w3.org/2000/svg"
 width="1936.000000pt" height="1936.000000pt" viewBox="0 0 1936.000000 1936.000000"
 preserveAspectRatio="xMidYMid meet">

<g transform="translate(0.000000,1936.000000) scale(0.100000,-0.100000)"
fill="#000000" stroke="none">
<path d="M9700 16810 c0 -8 -7 -51 -15 -95 -8 -44 -40 -224 -70 -400 -52 -310
-68 -382 -135 -624 -51 -185 -86 -353 -130 -612 -22 -134 -51 -288 -65 -341
-13 -53 -36 -168 -50 -255 -28 -166 -70 -364 -135 -623 -46 -183 -55 -231 -75
-410 -9 -74 -31 -216 -50 -315 -18 -99 -43 -236 -55 -305 -48 -271 -73 -393
-121 -580 -27 -107 -52 -203 -55 -212 -8 -27 -265 111 -447 240 -146 103 -231
157 -417 268 -52 31 -120 72 -151 90 -31 19 -127 85 -215 147 -87 62 -197 140
-244 171 -47 32 -116 84 -155 115 -91 74 -137 105 -268 180 -115 66 -262 162
-392 255 -44 32 -110 75 -146 97 -36 21 -111 72 -165 113 -55 40 -184 126
-289 189 -398 242 -545 343 -836 578 -79 64 -157 124 -173 134 l-29 19 12 -22
c20 -37 68 -107 221 -322 80 -113 162 -232 182 -265 211 -356 238 -398 367
-580 64 -91 151 -218 194 -283 82 -122 190 -280 204 -297 5 -5 44 -71 87 -145
95 -162 155 -253 197 -300 41 -45 128 -163 159 -215 13 -22 56 -83 96 -136
104 -139 195 -275 281 -418 159 -265 240 -390 326 -505 49 -65 102 -146 117
-180 103 -225 130 -290 123 -297 -8 -7 -459 -120 -553 -138 -30 -6 -151 -27
-269 -46 -118 -20 -280 -49 -360 -64 -80 -16 -180 -32 -221 -36 -104 -9 -221
-30 -380 -70 -220 -55 -448 -103 -565 -120 -136 -19 -256 -43 -306 -61 -22 -7
-110 -25 -197 -39 -243 -40 -397 -72 -652 -135 -343 -86 -759 -161 -990 -180
-264 -21 -441 -49 -400 -63 18 -6 321 -60 465 -82 150 -24 426 -75 460 -85
216 -68 528 -139 810 -185 121 -19 263 -46 315 -59 52 -13 158 -33 235 -45
157 -25 270 -49 590 -127 239 -58 343 -77 505 -94 58 -6 161 -22 230 -35 69
-13 154 -28 190 -34 161 -26 445 -79 545 -101 55 -11 539 -132 542 -135 2 -1
-28 -72 -65 -159 -59 -139 -79 -173 -175 -303 -97 -132 -159 -229 -337 -528
-64 -107 -184 -284 -251 -370 -25 -33 -83 -114 -127 -180 -44 -66 -106 -150
-139 -188 -32 -37 -87 -115 -122 -175 -129 -217 -216 -352 -286 -447 -39 -53
-94 -133 -121 -178 -27 -45 -69 -109 -95 -142 -109 -143 -251 -362 -384 -589
-45 -78 -104 -172 -132 -211 -131 -179 -324 -458 -319 -462 5 -5 186 131 301
226 44 37 98 80 120 97 93 72 400 273 517 340 161 93 269 163 386 251 51 38
123 87 160 107 37 20 108 68 157 105 87 67 328 221 430 275 28 15 90 57 138
94 48 37 148 110 222 162 445 315 406 289 737 487 84 51 212 135 283 188 111
81 380 235 412 235 10 0 113 -403 138 -535 8 -44 33 -186 55 -315 22 -129 49
-282 60 -340 11 -58 25 -150 30 -204 11 -107 37 -238 76 -381 41 -153 93 -404
114 -545 11 -74 30 -173 41 -220 11 -47 27 -112 35 -145 7 -33 21 -105 29
-160 25 -166 63 -347 127 -600 33 -132 73 -312 89 -400 59 -316 89 -499 89
-544 0 -66 37 -380 52 -437 l12 -49 17 95 c10 52 38 217 63 365 50 297 85 473
115 580 58 205 74 266 101 395 17 78 46 234 65 348 18 114 45 254 59 312 14
58 35 166 46 240 21 142 25 159 119 550 68 282 75 317 96 500 8 74 26 194 39
265 14 72 34 184 46 250 53 301 96 507 150 720 32 127 61 242 64 258 l6 27
158 -81 c86 -45 186 -103 221 -128 186 -135 239 -170 376 -252 262 -157 320
-194 471 -300 80 -57 194 -138 253 -179 59 -41 149 -108 200 -148 51 -40 123
-89 160 -108 114 -62 323 -195 406 -259 44 -33 106 -76 139 -95 67 -40 219
-140 226 -149 19 -23 117 -89 274 -182 243 -145 276 -166 457 -290 162 -110
175 -121 243 -179 115 -100 326 -258 326 -245 0 10 -263 391 -280 405 -18 16
-109 156 -194 300 -133 226 -180 299 -293 457 -54 75 -121 174 -150 220 -28
46 -72 112 -97 146 -91 123 -165 235 -275 420 -62 103 -137 215 -167 250 -31
34 -85 107 -122 162 -36 55 -93 136 -127 180 -101 134 -221 311 -280 413 -103
179 -251 411 -323 505 -45 60 -93 127 -106 150 -31 54 -130 286 -124 292 2 2
101 29 220 59 182 47 467 104 648 131 25 4 124 22 219 41 96 19 235 41 309 50
129 14 309 48 416 79 82 24 396 92 456 100 110 13 287 47 370 70 47 13 148 34
225 45 204 31 362 64 610 127 353 89 772 164 1054 188 182 15 348 38 359 50 3
2 -1 7 -9 9 -18 6 -333 61 -464 81 -179 28 -372 65 -467 90 -51 14 -154 41
-228 60 -196 52 -338 81 -580 120 -118 19 -249 44 -290 54 -80 21 -252 54
-360 69 -77 11 -362 75 -582 131 -86 22 -219 47 -295 56 -139 17 -301 42 -448
70 -44 8 -132 24 -195 34 -325 56 -433 78 -806 171 l-211 52 34 67 c18 36 47
100 64 141 56 135 85 186 176 306 82 109 145 207 333 519 76 127 163 254 276
408 43 59 101 140 127 181 26 40 73 102 103 137 56 64 128 175 243 369 34 58
88 141 119 186 155 220 190 272 208 304 10 19 68 102 127 185 60 82 127 182
150 220 23 39 55 90 72 115 17 25 55 88 85 140 47 84 148 240 200 310 147 199
275 389 267 397 -5 4 -28 -14 -284 -218 -178 -141 -411 -306 -542 -383 -216
-126 -387 -235 -492 -313 -62 -46 -141 -99 -175 -118 -34 -19 -98 -61 -141
-93 -107 -79 -327 -224 -388 -255 -68 -34 -221 -137 -270 -181 -22 -20 -83
-65 -135 -100 -52 -36 -133 -92 -180 -125 -210 -151 -272 -192 -370 -248 -150
-87 -343 -210 -505 -322 -141 -99 -410 -248 -419 -233 -16 27 -102 407 -136
604 -22 128 -56 314 -75 413 -19 99 -40 225 -45 280 -14 134 -25 192 -70 375
-63 250 -99 422 -120 569 -11 75 -31 179 -45 231 -14 52 -37 160 -50 240 -48
284 -68 378 -136 650 -37 151 -75 313 -84 360 -57 311 -94 555 -104 685 -13
170 -37 340 -51 364 -8 13 -9 14 -10 1z m9 -682 c32 -222 87 -503 136 -683 70
-261 97 -382 145 -660 22 -126 48 -268 59 -315 11 -47 28 -137 36 -200 9 -63
49 -250 90 -415 87 -359 91 -374 110 -540 8 -71 21 -168 30 -215 9 -47 29
-166 46 -265 46 -279 65 -371 134 -645 83 -331 97 -395 135 -635 25 -157 43
-235 86 -365 29 -91 61 -197 70 -236 l17 -72 -59 -75 c-32 -41 -71 -90 -86
-110 -15 -19 -62 -59 -105 -89 -43 -31 -108 -86 -144 -124 -70 -73 -281 -269
-369 -343 -28 -24 -77 -77 -107 -118 -30 -42 -83 -105 -117 -142 -34 -36 -75
-79 -90 -96 l-28 -30 6 65 c13 147 16 392 7 500 -6 63 -16 374 -22 690 -10
478 -10 625 2 870 9 197 13 477 11 845 -6 1044 -4 1261 8 1485 10 189 9 267
-4 490 -25 433 -33 1510 -11 1510 1 0 8 -37 14 -82z m-4490 -1897 c58 -45 420
-284 486 -320 119 -66 288 -175 392 -252 58 -44 126 -91 152 -106 82 -46 155
-95 221 -148 57 -45 248 -165 420 -263 30 -17 96 -63 145 -103 50 -39 142
-107 205 -151 63 -43 183 -126 265 -184 83 -58 191 -130 240 -160 276 -165
407 -248 507 -322 62 -46 160 -108 218 -138 183 -96 229 -124 240 -144 8 -14
6 -38 -5 -86 -8 -36 -31 -159 -50 -272 -35 -203 -47 -245 -136 -480 l-43 -112
-45 43 c-25 24 -64 56 -86 72 -22 16 -92 81 -155 145 -64 63 -136 132 -160
154 -91 78 -405 394 -485 486 -45 52 -181 193 -301 313 -120 119 -235 233
-254 252 -19 19 -102 101 -185 182 -290 286 -401 399 -449 453 -79 91 -307
320 -361 362 -27 22 -113 101 -191 176 -77 75 -229 222 -337 325 -244 234
-366 370 -248 278z m8933 -8 c-27 -34 -107 -113 -562 -557 -69 -68 -170 -161
-225 -208 -55 -47 -163 -152 -240 -233 -144 -153 -775 -786 -952 -955 -122
-117 -273 -275 -382 -400 -46 -52 -167 -176 -270 -275 -102 -99 -251 -243
-331 -320 -80 -77 -167 -158 -195 -180 -27 -21 -67 -55 -87 -74 -27 -25 -39
-30 -42 -20 -87 284 -128 447 -151 599 -3 25 -20 110 -36 189 -16 80 -29 150
-29 157 0 13 48 41 234 139 61 31 151 87 200 124 120 89 188 134 321 213 61
36 153 92 205 123 103 62 291 189 355 240 22 17 91 66 153 109 62 42 155 110
208 151 52 41 116 87 142 101 158 89 332 198 427 269 61 45 143 101 183 123
62 36 217 144 232 163 8 10 271 173 345 214 82 45 477 309 495 330 7 8 17 15
22 15 5 0 -4 -17 -20 -37z m-5611 -3496 c62 -49 123 -108 152 -147 27 -36 132
-152 235 -259 103 -106 204 -218 225 -247 24 -34 79 -84 150 -138 62 -46 141
-113 176 -149 l63 -65 -293 2 c-162 0 -568 -7 -904 -15 -463 -13 -657 -14
-805 -6 -107 5 -697 12 -1310 14 -613 3 -1216 5 -1340 6 -124 0 -405 -5 -625
-12 -472 -14 -1126 -17 -1145 -6 -8 5 88 25 241 51 140 24 308 57 374 74 385
100 483 122 705 159 135 23 292 52 350 66 58 13 164 34 235 45 134 21 272 51
575 126 96 23 229 50 295 59 218 29 308 43 515 79 433 75 467 82 780 161 270
68 317 78 575 120 153 25 242 46 330 76 146 49 281 87 316 88 19 1 57 -23 130
-82z m3499 -1068 c102 -5 640 -9 1195 -10 556 0 1114 -1 1240 -1 127 -1 502 5
835 14 566 14 895 14 930 1 8 -3 -102 -25 -245 -49 -142 -24 -311 -57 -375
-74 -382 -100 -479 -122 -700 -159 -135 -23 -292 -53 -350 -66 -58 -14 -154
-32 -215 -40 -113 -16 -288 -55 -596 -131 -96 -24 -231 -51 -300 -59 -155 -20
-306 -44 -569 -90 -358 -62 -410 -72 -675 -139 -318 -80 -356 -88 -620 -131
-143 -23 -244 -46 -315 -70 -136 -47 -307 -95 -336 -95 -34 0 -222 156 -277
230 -27 36 -133 152 -235 259 -103 107 -206 220 -229 251 -26 36 -71 78 -121
114 -44 31 -122 96 -173 145 l-94 88 295 0 c162 -1 547 6 855 15 562 16 732
15 1075 -3z m-2403 -156 c-14 -128 -18 -385 -8 -493 6 -63 15 -369 22 -680 10
-468 10 -618 -2 -875 -9 -203 -13 -496 -11 -850 6 -1046 5 -1242 -7 -1490 -9
-182 -10 -285 -2 -380 16 -195 35 -1297 26 -1470 l-8 -150 -48 275 c-26 151
-59 320 -74 375 -90 341 -128 511 -165 731 -23 137 -50 280 -60 319 -11 38
-31 140 -45 225 -27 168 -32 192 -107 500 -69 288 -77 328 -93 477 -8 73 -24
179 -35 235 -11 57 -28 157 -39 223 -19 114 -46 259 -71 390 -6 33 -39 168
-71 300 -67 266 -112 477 -129 602 -20 148 -38 225 -88 378 -28 83 -58 184
-68 226 l-17 76 68 89 c85 110 101 127 195 196 41 30 100 82 131 114 89 93
308 296 357 330 24 18 77 76 117 129 75 98 212 251 229 254 5 0 6 -25 3 -56z
m484 -246 c55 -71 55 -73 3 -27 -28 25 -74 64 -102 88 -29 24 -57 52 -63 63
-17 33 126 -77 162 -124z m-803 77 c-18 -25 -42 -51 -53 -56 -20 -11 -20 -11
0 13 30 37 79 89 83 89 2 0 -12 -21 -30 -46z m957 -246 l30 -33 -40 35 c-22
19 -44 39 -50 44 -5 5 -1 4 10 -2 11 -6 33 -25 50 -44z m700 -739 c171 -147
694 -658 849 -829 144 -158 343 -361 506 -516 58 -55 123 -119 145 -143 22
-23 135 -136 250 -249 116 -114 291 -292 390 -396 99 -104 206 -211 240 -239
33 -27 123 -111 200 -186 77 -75 211 -203 298 -285 151 -143 359 -359 327
-341 -8 5 -51 34 -96 66 -44 31 -90 62 -102 68 -12 6 -50 34 -86 61 -36 27
-129 87 -208 131 -136 78 -327 196 -338 209 -12 15 -240 170 -287 195 -28 15
-88 56 -132 91 -44 35 -151 107 -238 160 -87 53 -191 117 -231 141 -40 25 -98
65 -130 89 -72 56 -282 207 -415 299 -56 39 -138 95 -182 126 -44 30 -170 108
-280 173 -185 110 -252 151 -265 166 -12 12 -159 118 -205 147 -27 17 -104 58
-170 92 -66 34 -133 71 -148 84 l-28 22 25 155 c14 85 30 175 35 200 6 25 13
65 17 89 3 24 32 109 64 190 32 81 68 178 81 216 28 91 28 90 53 67 11 -10 39
-34 61 -53z m-2511 24 c4 -21 32 -121 62 -223 31 -102 65 -234 75 -295 11 -60
29 -159 41 -220 11 -60 21 -128 22 -150 l1 -40 -168 -90 c-99 -52 -213 -123
-275 -170 -107 -81 -211 -148 -382 -245 -103 -58 -416 -267 -546 -365 -44 -33
-114 -84 -155 -112 -41 -29 -98 -71 -127 -94 -30 -23 -154 -102 -275 -176
-122 -74 -237 -147 -256 -161 -118 -92 -151 -116 -196 -139 -27 -14 -121 -77
-208 -139 -148 -106 -254 -173 -454 -287 -46 -26 -113 -69 -150 -95 -134 -96
-303 -211 -303 -207 0 23 601 611 859 841 75 66 189 179 253 250 150 166 285
303 701 709 186 182 425 425 531 540 106 116 267 280 357 365 90 85 227 216
304 291 137 134 264 247 276 248 4 1 10 -16 13 -36z"/>
</g>
</svg>
